<?xml version="1.0" standalone="no"?>
<!DOCTYPE svg PUBLIC "-//W3C//DTD SVG 20010904//EN"
 "http://www.w3.org/TR/2001/REC-SVG-20010904/DTD/svg10.dtd">
<svg version="1.0" xmlns="http://www.w3.org/2000/svg"
 width="512.000000pt" height="512.000000pt" viewBox="0 0 512.000000 512.000000"
 preserveAspectRatio="xMidYMid meet">
<metadata>
Created by potrace 1.14, written by Peter Selinger 2001-2017
</metadata>
<g transform="translate(0.000000,512.000000) scale(0.100000,-0.100000)"
fill="#000000" stroke="none">
<path d="M2504 5004 c-11 -3 -38 -22 -59 -44 -85 -87 -46 -225 73 -261 99 -29
205 57 198 161 -7 102 -104 168 -212 144z"/>
<path d="M2094 4960 c-22 -10 -50 -34 -63 -54 -94 -143 61 -308 210 -224 42
23 79 85 79 131 0 114 -124 194 -226 147z"/>
<path d="M2915 4972 c-11 -2 -35 -15 -53 -29 -79 -59 -86 -168 -17 -238 97
-96 264 -31 267 105 2 59 -22 108 -66 138 -31 21 -93 32 -131 24z"/>
<path d="M3311 4869 c-98 -21 -153 -125 -115 -217 25 -61 98 -103 164 -95 158
21 192 245 45 300 -50 19 -59 20 -94 12z"/>
<path d="M1708 4856 c-88 -46 -114 -125 -72 -212 72 -152 296 -98 296 71 0 49
-14 79 -50 113 -46 43 -121 55 -174 28z"/>
<path d="M1364 4694 c-43 -14 -103 -76 -105 -108 -5 -68 0 -98 22 -131 54 -81
176 -93 242 -24 66 70 63 166 -7 232 -16 15 -32 27 -35 27 -3 0 -22 4 -42 9
-24 6 -49 4 -75 -5z"/>
<path d="M3643 4690 c-87 -39 -122 -135 -79 -218 60 -116 227 -110 283 9 61
129 -75 268 -204 209z"/>
<path d="M2486 4621 c-89 -60 -92 -177 -5 -233 145 -94 294 97 169 217 -40 38
-120 46 -164 16z"/>
<path d="M2170 4602 c-105 -46 -119 -187 -25 -248 118 -77 264 60 197 185 -30
56 -117 88 -172 63z"/>
<path d="M2819 4587 c-65 -43 -82 -123 -41 -190 26 -42 60 -60 115 -62 82 -3
140 57 139 142 -3 108 -123 170 -213 110z"/>
<path d="M1856 4519 c-127 -35 -134 -223 -11 -266 113 -39 222 69 178 177 -30
74 -95 109 -167 89z"/>
<path d="M3189 4523 c-55 -8 -107 -77 -104 -140 3 -83 57 -135 140 -135 111 0
173 122 111 217 -29 45 -85 66 -147 58z"/>
<path d="M1034 4461 c-132 -44 -145 -224 -20 -288 50 -26 108 -23 152 6 73 50
96 127 60 201 -39 80 -108 109 -192 81z"/>
<path d="M3983 4468 c-74 -20 -126 -115 -104 -190 32 -104 138 -149 231 -97
53 30 84 88 78 149 -10 103 -102 166 -205 138z"/>
<path d="M3498 4379 c-130 -35 -146 -203 -25 -262 87 -43 197 26 197 125 0 82
-95 158 -172 137z"/>
<path d="M1523 4364 c-70 -35 -96 -130 -54 -197 40 -65 132 -85 196 -43 144
94 12 316 -142 240z"/>
<path d="M2503 4288 c-75 -44 -88 -137 -27 -194 113 -107 276 59 166 169 -34
34 -103 46 -139 25z"/>
<path d="M2243 4269 c-29 -8 -81 -58 -84 -80 -6 -40 -3 -59 13 -91 35 -72 131
-86 189 -29 88 88 2 233 -118 200z"/>
<path d="M2803 4269 c-68 -19 -103 -104 -70 -169 20 -40 72 -69 113 -64 49 6
72 20 94 57 25 41 25 83 0 124 -29 49 -80 68 -137 52z"/>
<path d="M3057 4186 c-33 -16 -45 -30 -56 -62 -18 -52 -9 -90 33 -129 76 -71
190 -21 197 86 4 58 -34 105 -95 119 -28 6 -45 3 -79 -14z"/>
<path d="M1951 4187 c-52 -27 -79 -88 -61 -143 40 -120 216 -104 233 21 13 95
-87 166 -172 122z"/>
<path d="M4264 4184 c-92 -32 -134 -136 -90 -223 50 -96 187 -113 259 -33 61
67 46 195 -29 236 -10 6 -21 14 -24 17 -10 13 -82 15 -116 3z"/>
<path d="M728 4170 c-78 -41 -106 -148 -59 -223 43 -70 151 -96 217 -52 30 19
67 69 71 95 1 10 3 23 4 27 9 53 -36 132 -88 157 -44 21 -99 20 -145 -4z"/>
<path d="M1262 4177 c-37 -11 -77 -57 -87 -100 -28 -111 87 -204 193 -157 49
22 73 56 79 113 12 101 -84 176 -185 144z"/>
<path d="M3743 4174 c-94 -48 -100 -187 -10 -243 84 -52 194 -1 212 98 7 41
-24 113 -59 136 -38 25 -104 29 -143 9z"/>
<path d="M3311 4069 c-81 -49 -85 -160 -7 -209 57 -36 145 -8 172 55 19 46 18
72 -6 110 -34 55 -108 75 -159 44z"/>
<path d="M1678 4057 c-71 -60 -63 -163 17 -201 110 -52 221 70 154 168 -13 19
-34 40 -47 45 -39 18 -95 13 -124 -12z"/>
<path d="M2513 3982 c-69 -33 -77 -124 -16 -172 65 -51 163 2 163 87 0 67 -83
115 -147 85z"/>
<path d="M2288 3963 c-70 -28 -84 -113 -28 -165 48 -44 112 -37 148 17 32 46
22 110 -21 138 -36 22 -61 25 -99 10z"/>
<path d="M2763 3968 c-75 -20 -99 -116 -42 -169 65 -61 168 -17 169 72 0 67
-62 115 -127 97z"/>
<path d="M1014 3930 c-89 -39 -111 -149 -44 -219 16 -17 42 -33 57 -37 16 -3
34 -8 41 -10 26 -8 101 34 122 68 71 117 -51 255 -176 198z"/>
<path d="M4000 3942 c-82 -37 -114 -113 -80 -188 55 -125 243 -100 263 34 6
37 -8 88 -31 115 -34 39 -109 58 -152 39z"/>
<path d="M3570 3919 c-103 -22 -123 -177 -28 -222 87 -41 173 11 173 103 0 83
-64 136 -145 119z"/>
<path d="M1452 3901 c-105 -66 -50 -226 76 -222 66 1 119 70 107 140 -14 83
-112 126 -183 82z"/>
<path d="M2979 3906 c-75 -24 -88 -139 -20 -179 98 -58 198 51 135 147 -20 32
-72 46 -115 32z"/>
<path d="M2060 3903 c-34 -14 -54 -44 -56 -88 -2 -38 2 -49 26 -74 35 -34 65
-42 105 -25 58 23 80 71 61 135 -13 44 -85 72 -136 52z"/>
<path d="M546 3858 c-78 -17 -129 -77 -129 -153 0 -114 117 -192 220 -145 47
21 71 48 88 96 38 111 -65 227 -179 202z"/>
<path d="M4470 3848 c-84 -45 -111 -158 -56 -231 95 -124 286 -63 288 92 1
115 -130 194 -232 139z"/>
<path d="M1875 3812 c-39 -8 -74 -42 -81 -78 -19 -100 96 -165 167 -95 16 16
30 37 30 45 3 41 1 53 -10 77 -18 36 -66 60 -106 51z"/>
<path d="M3168 3797 c-80 -54 -47 -176 49 -182 98 -6 145 112 71 177 -12 10
-28 18 -37 19 -9 0 -24 2 -33 4 -10 2 -32 -7 -50 -18z"/>
<path d="M3735 3705 c-58 -40 -72 -114 -33 -171 25 -36 44 -45 102 -49 82 -5
142 96 102 173 -31 61 -116 84 -171 47z"/>
<path d="M1252 3700 c-40 -25 -55 -61 -49 -120 12 -110 159 -139 218 -43 36
58 13 139 -47 168 -43 20 -83 19 -122 -5z"/>
<path d="M2500 3698 c-11 -12 -20 -25 -21 -30 -7 -52 6 -83 43 -101 82 -40
158 64 93 128 -32 33 -86 34 -115 3z"/>
<path d="M2335 3698 c-52 -28 -62 -92 -20 -133 40 -41 102 -30 128 23 14 29
15 36 3 70 -13 38 -74 60 -111 40z"/>
<path d="M2693 3686 c-13 -11 -26 -36 -29 -54 -10 -62 78 -117 127 -79 43 33
49 84 15 124 -30 35 -78 39 -113 9z"/>
<path d="M3400 3683 c-33 -10 -62 -28 -72 -47 -56 -105 65 -207 152 -128 43
38 47 107 7 146 -16 17 -69 34 -87 29z"/>
<path d="M1648 3663 c-35 -22 -52 -64 -44 -106 17 -91 140 -109 183 -29 11 21
19 43 17 50 -1 6 -2 18 -3 26 0 8 -11 27 -24 42 -29 34 -90 42 -129 17z"/>
<path d="M4215 3670 c-46 -10 -75 -32 -96 -72 -33 -65 -17 -137 40 -178 67
-47 152 -31 198 39 66 99 -26 236 -142 211z"/>
<path d="M825 3655 c-62 -29 -85 -64 -85 -131 0 -145 196 -185 263 -54 34 66
0 157 -69 186 -42 17 -71 17 -109 -1z"/>
<path d="M2155 3648 c-57 -31 -65 -94 -18 -137 51 -45 133 -7 133 63 0 36 -6
46 -40 69 -28 20 -47 21 -75 5z"/>
<path d="M2874 3636 c-47 -40 -34 -115 25 -137 70 -27 143 64 98 122 -33 43
-84 49 -123 15z"/>
<path d="M1983 3570 c-28 -11 -52 -57 -47 -90 5 -34 49 -70 83 -70 39 0 81 44
81 84 -1 38 -18 62 -54 76 -32 12 -34 12 -63 0z"/>
<path d="M3046 3558 c-26 -24 -29 -34 -27 -81 1 -33 53 -69 90 -62 67 12 94
93 46 140 -31 32 -76 32 -109 3z"/>
<path d="M1513 3512 c-28 -4 -71 -47 -75 -75 -10 -61 40 -127 97 -127 31 0 82
31 94 56 37 82 -26 162 -116 146z"/>
<path d="M3517 3497 c-74 -60 -32 -183 61 -180 37 1 46 6 74 33 25 26 29 36
25 70 -6 54 -29 86 -68 94 -50 10 -62 7 -92 -17z"/>
<path d="M4661 3496 c-37 -13 -100 -79 -102 -105 0 -9 -2 -25 -4 -36 -7 -33
16 -92 45 -120 79 -75 203 -57 251 37 25 50 27 94 4 142 -33 70 -121 107 -194
82z"/>
<path d="M344 3486 c-60 -26 -97 -85 -98 -157 0 -9 8 -34 18 -56 67 -149 301
-98 299 66 -1 64 -24 105 -76 136 -48 28 -96 31 -143 11z"/>
<path d="M3926 3485 c-32 -11 -73 -45 -77 -64 -13 -60 2 -118 38 -145 13 -10
42 -20 63 -23 115 -16 180 142 86 211 -42 31 -66 36 -110 21z"/>
<path d="M1110 3478 c-91 -34 -99 -159 -14 -214 79 -52 191 20 179 115 -11 83
-86 128 -165 99z"/>
<path d="M2511 3464 c-12 -15 -21 -33 -21 -41 0 -21 46 -63 70 -63 53 0 81 84
38 114 -33 23 -64 19 -87 -10z"/>
<path d="M2370 3462 c-52 -42 -17 -122 50 -112 27 3 50 32 50 62 0 54 -59 83
-100 50z"/>
<path d="M2684 3470 c-64 -26 -44 -120 25 -120 36 0 61 28 61 68 0 25 -6 35
-30 47 -16 8 -30 15 -32 14 -2 0 -13 -4 -24 -9z"/>
<path d="M1809 3441 c-35 -35 -37 -70 -6 -106 48 -56 129 -32 143 42 5 27 1
37 -24 63 -39 39 -74 39 -113 1z"/>
<path d="M3195 3445 c-32 -31 -32 -76 -2 -109 24 -27 48 -34 87 -23 25 6 58
51 54 75 -1 6 -2 18 -3 25 0 7 -10 23 -21 35 -29 31 -83 30 -115 -3z"/>
<path d="M2240 3433 c-63 -23 -46 -123 21 -123 46 0 75 42 59 85 -7 19 -50 50
-63 44 -1 0 -9 -3 -17 -6z"/>
<path d="M2811 3418 c-26 -28 -27 -62 -1 -88 26 -26 60 -25 89 1 18 17 22 28
17 53 -11 51 -71 71 -105 34z"/>
<path d="M2962 3369 c-26 -10 -43 -66 -28 -91 17 -29 49 -37 84 -22 31 13 37
25 32 69 -4 40 -44 60 -88 44z"/>
<path d="M683 3350 c-96 -43 -117 -155 -43 -229 107 -107 287 24 219 160 -22
45 -38 58 -92 74 -39 12 -49 11 -84 -5z"/>
<path d="M2076 3348 c-9 -12 -16 -32 -16 -45 0 -20 23 -52 38 -54 4 0 15 -2
26 -4 22 -4 66 37 66 62 0 35 -29 63 -65 63 -24 0 -39 -7 -49 -22z"/>
<path d="M4349 3360 c-45 -13 -77 -40 -93 -79 -46 -118 74 -236 184 -181 43
22 64 45 77 85 10 33 10 37 -1 82 -7 31 -64 92 -89 94 -7 1 -21 2 -32 4 -11 1
-32 -1 -46 -5z"/>
<path d="M1694 3327 c-50 -28 -60 -92 -19 -132 52 -53 140 -14 137 60 -2 62
-66 101 -118 72z"/>
<path d="M3353 3333 c-27 -5 -56 -64 -47 -97 18 -74 126 -85 154 -16 17 41 5
83 -29 103 -29 17 -37 18 -78 10z"/>
<path d="M1371 3319 c-29 -11 -60 -46 -63 -68 0 -9 -2 -23 -3 -31 -2 -20 20
-63 40 -80 29 -24 92 -21 125 7 86 72 5 213 -99 172z"/>
<path d="M3659 3315 c-36 -20 -55 -67 -43 -112 27 -108 186 -98 195 12 3 43
-2 58 -30 86 -33 33 -78 38 -122 14z"/>
<path d="M2524 3275 c-27 -42 -1 -74 51 -61 47 12 26 86 -24 86 -6 0 -18 -11
-27 -25z"/>
<path d="M1973 3278 c-61 -30 -36 -118 33 -118 27 0 36 6 47 28 7 15 12 33 11
40 -1 6 -2 16 -3 22 -1 8 -54 41 -63 39 -2 0 -13 -5 -25 -11z"/>
<path d="M2412 3274 c-28 -19 -28 -48 -1 -68 46 -32 97 26 56 64 -25 24 -27
24 -55 4z"/>
<path d="M2652 3274 c-36 -25 -27 -60 20 -77 23 -8 59 29 51 52 -6 16 -32 41
-43 41 -3 0 -16 -7 -28 -16z"/>
<path d="M3089 3283 c-23 -6 -43 -47 -36 -75 14 -53 93 -62 115 -13 17 36 15
48 -8 73 -20 21 -36 25 -71 15z"/>
<path d="M2765 3243 c-21 -21 -18 -49 7 -67 19 -13 25 -14 43 -2 26 17 31 49
9 66 -23 20 -42 21 -59 3z"/>
<path d="M2282 3233 c-12 -22 1 -58 22 -66 23 -9 46 2 56 27 12 31 -6 56 -40
56 -18 0 -33 -7 -38 -17z"/>
<path d="M4022 3220 c-120 -74 -43 -256 92 -219 51 14 86 61 86 113 0 93 -101
154 -178 106z"/>
<path d="M984 3220 c-31 -12 -64 -64 -66 -102 -2 -55 38 -112 89 -124 97 -25
181 80 138 170 -27 57 -98 82 -161 56z"/>
<path d="M2181 3189 c-19 -21 -18 -40 2 -66 13 -18 31 -16 57 5 28 22 21 54
-15 70 -21 10 -28 8 -44 -9z"/>
<path d="M2890 3203 c-37 -14 -41 -65 -6 -81 48 -22 90 42 49 74 -20 15 -21
15 -43 7z"/>
<path d="M3462 3175 c-91 -40 -47 -169 52 -151 30 6 40 14 52 42 19 45 9 81
-30 105 -36 22 -32 22 -74 4z"/>
<path d="M1566 3154 c-33 -33 -34 -74 -2 -110 46 -54 133 -28 140 42 8 83 -80
126 -138 68z"/>
<path d="M1852 3158 c-28 -31 -28 -62 0 -88 40 -37 93 -20 103 35 8 38 -10 63
-50 71 -23 4 -35 0 -53 -18z"/>
<path d="M3177 3162 c-38 -42 -4 -112 50 -106 32 3 51 21 57 56 9 55 -69 92
-107 50z"/>
<path d="M2087 3125 c-20 -14 -23 -60 -4 -72 24 -15 45 -12 62 7 34 38 -17 95
-58 65z"/>
<path d="M2970 3126 c-16 -16 -12 -51 8 -68 22 -20 57 -8 67 22 13 40 -45 76
-75 46z"/>
<path d="M243 3100 c-105 -48 -132 -182 -51 -257 99 -93 253 -37 266 96 11
121 -107 210 -215 161z"/>
<path d="M1289 3112 c-49 -13 -75 -43 -83 -98 -8 -46 51 -104 104 -104 52 0
99 48 100 102 0 63 -63 116 -121 100z"/>
<path d="M3764 3104 c-74 -36 -71 -139 4 -178 40 -20 83 -11 115 24 46 52 35
125 -25 156 -34 18 -55 17 -94 -2z"/>
<path d="M4764 3107 c-134 -51 -142 -225 -14 -292 35 -18 109 -13 149 10 111
66 94 241 -28 283 -42 15 -67 14 -107 -1z"/>
<path d="M1778 3046 c-46 -23 -39 -97 11 -114 55 -19 99 29 76 85 -15 34 -51
47 -87 29z"/>
<path d="M3264 3035 c-27 -27 -26 -54 4 -87 33 -39 105 -6 105 47 0 32 -33 65
-65 65 -10 0 -30 -11 -44 -25z"/>
<path d="M2000 3037 c-29 -24 -18 -70 19 -80 23 -6 34 1 50 30 10 19 8 26 -9
43 -23 23 -38 25 -60 7z"/>
<path d="M3055 3040 c-14 -23 -12 -49 6 -66 38 -34 99 25 62 61 -16 17 -59 20
-68 5z"/>
<path d="M590 3021 c-98 -46 -107 -179 -18 -242 57 -41 153 -23 192 36 34 52
25 137 -18 180 -38 39 -106 50 -156 26z"/>
<path d="M4402 3020 c-92 -56 -92 -184 1 -240 64 -39 154 -15 189 51 36 68 18
141 -44 182 -50 32 -100 35 -146 7z"/>
<path d="M3554 3013 c-49 -9 -75 -73 -50 -122 48 -91 189 -18 144 75 -14 30
-60 52 -94 47z"/>
<path d="M1509 3003 c-19 -5 -49 -54 -49 -81 0 -37 43 -75 84 -75 44 0 73 24
82 70 5 27 1 37 -24 63 -29 28 -52 34 -93 23z"/>
<path d="M4097 2947 c-43 -24 -68 -70 -62 -115 16 -123 177 -148 229 -37 49
103 -68 209 -167 152z"/>
<path d="M902 2940 c-103 -63 -58 -220 64 -220 127 0 165 177 49 226 -47 19
-74 18 -113 -6z"/>
<path d="M3147 2952 c-10 -2 -23 -16 -28 -30 -9 -23 -7 -30 11 -44 28 -23 36
-22 60 2 16 16 18 24 8 44 -12 28 -24 34 -51 28z"/>
<path d="M1938 2943 c-10 -2 -18 -8 -19 -11 0 -4 -2 -15 -4 -25 -4 -21 20 -47
43 -47 39 1 58 37 36 69 -15 21 -23 23 -56 14z"/>
<path d="M1705 2895 c-29 -28 -31 -46 -9 -80 31 -48 114 -19 114 40 0 28 -35
65 -62 65 -11 0 -30 -11 -43 -25z"/>
<path d="M3327 2902 c-39 -42 -1 -120 52 -107 51 12 73 61 46 102 -19 29 -74
31 -98 5z"/>
<path d="M3822 2880 c-53 -32 -66 -83 -37 -140 17 -33 72 -55 111 -46 72 18
100 118 48 170 -15 14 -29 26 -33 27 -3 0 -18 2 -32 4 -15 2 -40 -5 -57 -15z"/>
<path d="M1194 2871 c-81 -50 -47 -179 49 -183 68 -2 114 51 103 120 -11 71
-87 103 -152 63z"/>
<path d="M3193 2839 c-13 -5 -23 -12 -24 -16 0 -4 -2 -16 -4 -25 -7 -40 58
-58 81 -23 26 40 -7 81 -53 64z"/>
<path d="M1877 2822 c-14 -15 -15 -25 -8 -46 12 -31 49 -35 74 -8 13 15 14 22
4 42 -16 31 -48 37 -70 12z"/>
<path d="M3603 2828 c-83 -22 -83 -134 0 -156 66 -18 123 45 97 108 -17 41
-55 60 -97 48z"/>
<path d="M1445 2808 c-39 -35 -41 -83 -5 -120 23 -22 36 -28 57 -25 47 8 64
19 74 44 14 39 11 59 -17 92 -31 38 -72 41 -109 9z"/>
<path d="M3372 2760 c-50 -47 -5 -130 58 -109 48 17 61 69 25 104 -29 30 -54
32 -83 5z"/>
<path d="M1660 2748 c-38 -41 -5 -108 51 -103 80 7 76 125 -4 125 -14 0 -35
-10 -47 -22z"/>
<path d="M3210 2715 c-8 -10 -13 -32 -11 -51 0 -6 12 -16 25 -22 45 -20 83 33
50 70 -17 18 -50 20 -64 3z"/>
<path d="M217 2705 c-95 -33 -132 -127 -87 -220 50 -103 187 -116 264 -25 28
33 28 33 31 95 6 106 -105 186 -208 150z"/>
<path d="M1840 2699 c-9 -16 -8 -26 5 -45 17 -27 27 -29 56 -14 21 12 25 50 7
68 -19 19 -56 14 -68 -9z"/>
<path d="M4785 2706 c-39 -18 -69 -52 -84 -95 -16 -48 -14 -69 10 -117 68
-142 279 -104 297 52 6 55 -17 109 -60 143 -37 30 -118 38 -163 17z"/>
<path d="M4470 2698 c-127 -34 -144 -206 -27 -261 35 -17 91 -17 123 1 68 37
95 131 56 194 -35 56 -93 81 -152 66z"/>
<path d="M560 2682 c-44 -22 -80 -75 -80 -118 0 -139 164 -199 250 -91 32 41
34 123 4 164 -40 55 -116 74 -174 45z"/>
<path d="M4154 2682 c-12 -2 -35 -15 -53 -30 -24 -20 -34 -38 -38 -71 -17
-128 143 -193 215 -88 61 90 -14 206 -124 189z"/>
<path d="M863 2645 c-65 -57 -53 -155 25 -193 20 -10 43 -17 50 -16 6 1 21 2
32 3 11 0 34 14 52 30 28 25 33 36 34 84 2 49 -1 58 -28 86 -17 17 -38 32 -47
33 -65 7 -84 2 -118 -27z"/>
<path d="M3872 2659 c-44 -9 -70 -35 -78 -76 -19 -102 113 -166 177 -85 29 37
23 115 -12 140 -35 25 -51 29 -87 21z"/>
<path d="M1193 2653 c-13 -2 -31 -16 -42 -31 -76 -108 62 -228 152 -131 31 34
35 77 10 119 -25 43 -59 55 -120 43z"/>
<path d="M3604 2633 c-36 -18 -44 -30 -44 -71 0 -68 78 -105 132 -62 59 46 31
132 -49 146 -6 1 -24 -5 -39 -13z"/>
<path d="M1421 2615 c-37 -39 -28 -106 17 -128 61 -30 120 1 127 68 2 19 -25
64 -45 75 -29 16 -78 8 -99 -15z"/>
<path d="M3383 2604 c-26 -26 -26 -61 -1 -91 18 -22 75 -16 92 9 48 68 -33
140 -91 82z"/>
<path d="M1650 2600 c-56 -56 19 -140 82 -91 31 24 33 62 6 90 -24 27 -62 27
-88 1z"/>
<path d="M3228 2599 c-11 -6 -18 -22 -18 -39 0 -22 6 -30 30 -38 26 -9 32 -8
45 11 21 29 19 43 -7 61 -26 19 -27 19 -50 5z"/>
<path d="M1834 2588 c-4 -6 -8 -21 -10 -33 -3 -29 39 -54 64 -39 21 14 28 64
10 75 -19 12 -56 11 -64 -3z"/>
<path d="M3218 2479 c-23 -13 -23 -61 0 -75 42 -27 90 29 56 67 -19 21 -31 23
-56 8z"/>
<path d="M1846 2464 c-20 -19 -20 -24 0 -52 18 -26 32 -28 61 -7 19 13 20 19
11 45 -11 34 -46 41 -72 14z"/>
<path d="M3372 2457 c-30 -32 -28 -71 3 -96 47 -36 114 6 99 63 -13 52 -68 69
-102 33z"/>
<path d="M1661 2449 c-39 -43 3 -118 58 -104 39 10 51 24 51 60 0 60 -68 88
-109 44z"/>
<path d="M3570 2431 c-34 -34 -37 -60 -13 -102 44 -74 167 -25 148 59 -9 41
-27 58 -68 66 -33 6 -41 4 -67 -23z"/>
<path d="M1442 2430 c-12 -12 -22 -24 -23 -28 0 -4 -2 -16 -4 -26 -6 -30 21
-73 52 -84 53 -18 113 23 113 78 0 68 -89 106 -138 60z"/>
<path d="M3855 2432 c-39 -9 -74 -42 -81 -78 -19 -100 96 -165 167 -95 16 16
29 35 30 43 0 7 2 21 4 30 8 45 -71 111 -120 100z"/>
<path d="M1200 2416 c-13 -6 -31 -28 -41 -50 -16 -36 -16 -43 -3 -75 17 -42
13 -36 48 -55 41 -21 86 -12 119 24 76 85 -17 203 -123 156z"/>
<path d="M913 2384 c-44 -22 -66 -60 -65 -111 1 -125 172 -163 226 -49 49 103
-60 210 -161 160z"/>
<path d="M4086 2379 c-29 -23 -53 -65 -51 -89 1 -8 3 -26 3 -39 1 -13 18 -39
38 -57 27 -26 44 -34 72 -34 69 0 118 44 126 112 11 95 -113 166 -188 107z"/>
<path d="M1876 2348 c-24 -34 6 -81 45 -71 28 8 42 38 29 63 -6 11 -14 20 -18
21 -4 0 -15 2 -25 4 -9 2 -23 -6 -31 -17z"/>
<path d="M3176 2348 c-21 -30 0 -63 40 -63 22 0 29 6 35 28 14 51 -45 78 -75
35z"/>
<path d="M4445 2360 c-95 -21 -139 -119 -93 -202 51 -91 178 -98 234 -13 59
90 10 201 -96 219 -8 2 -29 0 -45 -4z"/>
<path d="M580 2343 c-86 -52 -92 -179 -12 -238 17 -13 45 -20 80 -22 48 -2 56
1 91 35 59 56 67 127 20 187 -41 51 -127 70 -179 38z"/>
<path d="M1732 2322 c-27 -4 -52 -40 -47 -67 2 -11 4 -23 4 -27 2 -13 55 -36
71 -30 42 13 64 65 42 98 -11 18 -45 30 -70 26z"/>
<path d="M3330 2308 c-33 -36 -9 -106 37 -108 15 0 63 21 64 29 0 3 3 18 5 33
10 58 -65 90 -106 46z"/>
<path d="M4781 2318 c-79 -21 -128 -91 -119 -172 10 -84 73 -140 159 -139 92
2 158 73 153 166 -5 98 -100 169 -193 145z"/>
<path d="M244 2305 c-129 -55 -129 -241 0 -290 166 -64 296 141 165 259 -21
20 -45 37 -52 37 -59 6 -89 5 -113 -6z"/>
<path d="M3531 2259 c-17 -10 -32 -27 -33 -36 -1 -10 -2 -27 -3 -38 -3 -32 44
-75 79 -75 71 1 110 82 65 133 -31 34 -69 40 -108 16z"/>
<path d="M1509 2263 c-25 -7 -51 -60 -44 -92 9 -41 37 -63 82 -63 63 0 101 60
71 115 -22 42 -57 55 -109 40z"/>
<path d="M1930 2240 c-30 -30 0 -83 42 -72 40 10 45 62 7 82 -24 13 -26 13
-49 -10z"/>
<path d="M3133 2248 c-20 -27 -21 -46 -3 -63 24 -21 66 -13 75 14 13 43 -46
82 -72 49z"/>
<path d="M1272 2195 c-45 -19 -66 -57 -59 -107 7 -53 34 -79 88 -85 62 -6 99
25 106 88 4 38 1 50 -18 72 -32 36 -77 48 -117 32z"/>
<path d="M3768 2199 c-28 -11 -58 -62 -58 -98 0 -44 63 -104 101 -97 66 13 93
36 103 88 6 36 -19 85 -53 102 -34 18 -54 19 -93 5z"/>
<path d="M3300 2192 c-46 -15 -65 -69 -37 -104 19 -25 59 -29 84 -10 22 17 26
30 24 69 -1 25 -46 53 -71 45z"/>
<path d="M1772 2174 c-30 -21 -30 -77 0 -98 66 -46 139 34 83 90 -28 28 -52
30 -83 8z"/>
<path d="M2000 2145 c-6 -8 -10 -26 -8 -42 2 -23 8 -29 35 -31 24 -2 34 2 43
18 23 42 -40 91 -70 55z"/>
<path d="M3063 2148 c-20 -26 -21 -46 -4 -62 24 -21 44 -20 66 4 15 17 16 24
7 45 -13 27 -52 34 -69 13z"/>
<path d="M983 2110 c-44 -26 -61 -60 -59 -113 6 -141 210 -153 233 -13 16 97
-93 176 -174 126z"/>
<path d="M4025 2111 c-132 -80 -29 -278 110 -210 62 31 85 99 54 161 -33 64
-105 86 -164 49z"/>
<path d="M3464 2096 c-20 -9 -35 -25 -43 -46 -29 -84 72 -148 134 -85 32 31
33 76 3 109 -30 32 -56 38 -94 22z"/>
<path d="M1577 2086 c-26 -20 -40 -68 -28 -99 13 -33 62 -60 96 -51 33 8 65
50 65 84 0 60 -85 102 -133 66z"/>
<path d="M2990 2067 c-29 -14 -35 -30 -20 -56 23 -43 80 -26 80 24 0 32 -28
46 -60 32z"/>
<path d="M1866 2058 c-22 -12 -36 -50 -29 -77 14 -53 106 -57 119 -5 9 36 -3
72 -29 80 -35 12 -42 12 -61 2z"/>
<path d="M2078 2045 c-10 -22 -9 -29 9 -46 39 -39 98 5 67 49 -21 31 -61 29
-76 -3z"/>
<path d="M3200 2063 c-63 -25 -43 -123 25 -123 14 0 34 9 45 20 49 49 -4 128
-70 103z"/>
<path d="M707 2028 c-48 -10 -84 -44 -102 -94 -15 -43 -13 -58 10 -108 22 -47
87 -79 140 -70 89 14 128 75 116 181 -2 24 -60 79 -93 89 -19 6 -49 7 -71 2z"/>
<path d="M4314 2015 c-65 -39 -87 -116 -50 -181 32 -58 81 -80 160 -72 28 2
96 71 97 99 7 108 -32 163 -123 174 -34 4 -52 0 -84 -20z"/>
<path d="M2192 1994 c-27 -19 -28 -45 -3 -68 25 -23 59 -13 67 19 11 44 -29
74 -64 49z"/>
<path d="M2874 1985 c-26 -39 9 -81 54 -64 16 6 22 16 22 37 0 51 -49 68 -76
27z"/>
<path d="M1373 1987 c-65 -19 -85 -115 -37 -168 22 -25 77 -34 114 -19 118 49
46 224 -77 187z"/>
<path d="M3673 1990 c-26 -11 -56 -54 -61 -86 -4 -34 23 -81 57 -98 72 -38
160 26 146 106 -11 61 -85 102 -142 78z"/>
<path d="M1964 1941 c-26 -30 -27 -64 -4 -89 54 -58 144 17 96 80 -22 29 -71
34 -92 9z"/>
<path d="M2766 1938 c-27 -39 12 -90 53 -69 10 6 21 16 24 23 16 44 -51 84
-77 46z"/>
<path d="M3076 1945 c-45 -34 -6 -121 50 -111 34 6 41 12 52 46 21 58 -51 104
-102 65z"/>
<path d="M1679 1920 c-37 -37 -38 -78 -3 -114 45 -44 115 -30 133 27 20 58 -9
104 -69 112 -26 3 -39 -2 -61 -25z"/>
<path d="M2290 1935 c-17 -20 -5 -62 20 -70 42 -13 71 24 54 69 -8 20 -57 21
-74 1z"/>
<path d="M3336 1928 c-51 -46 -28 -130 38 -142 66 -12 119 57 89 116 -25 52
-85 64 -127 26z"/>
<path d="M4666 1929 c-39 -11 -93 -65 -103 -103 -34 -141 99 -252 225 -187
102 54 113 188 22 265 -18 14 -39 27 -48 28 -52 4 -70 4 -96 -3z"/>
<path d="M337 1915 c-61 -32 -91 -88 -85 -157 19 -188 294 -188 313 0 5 53
-28 119 -74 149 -40 27 -111 31 -154 8z"/>
<path d="M2656 1911 c-24 -27 -20 -60 9 -73 21 -9 28 -8 45 7 33 30 24 62 -22
78 -9 3 -23 -2 -32 -12z"/>
<path d="M2412 1908 c-16 -16 -15 -53 2 -67 19 -16 64 -4 71 20 14 43 -41 79
-73 47z"/>
<path d="M2532 1898 c-39 -39 17 -100 58 -63 34 31 20 75 -25 75 -12 0 -26 -5
-33 -12z"/>
<path d="M2969 1866 c-35 -17 -46 -58 -25 -91 24 -37 83 -33 106 8 13 24 13
30 0 53 -19 34 -50 46 -81 30z"/>
<path d="M3944 1872 c-41 -4 -93 -58 -99 -102 -9 -77 55 -145 128 -136 68 8
100 41 110 113 10 69 -61 133 -139 125z"/>
<path d="M1104 1854 c-79 -39 -87 -152 -13 -204 86 -62 200 9 185 115 -13 86
-94 128 -172 89z"/>
<path d="M2093 1862 c-6 -4 -16 -19 -21 -32 -28 -74 76 -121 113 -51 12 23 11
31 -2 59 -13 26 -21 32 -47 32 -17 0 -36 -4 -43 -8z"/>
<path d="M1831 1802 c-57 -27 -62 -114 -7 -140 43 -21 55 -20 88 1 86 58 12
185 -81 139z"/>
<path d="M3207 1797 c-41 -33 -44 -82 -7 -118 37 -37 78 -38 114 -3 71 72 -29
184 -107 121z"/>
<path d="M1514 1799 c-44 -12 -67 -43 -70 -93 -2 -36 2 -49 26 -73 84 -85 223
20 157 118 -27 41 -71 59 -113 48z"/>
<path d="M2233 1798 c-52 -25 -36 -102 24 -114 60 -12 96 58 53 104 -23 24
-43 27 -77 10z"/>
<path d="M2819 1797 c-42 -32 -24 -102 30 -112 61 -11 96 60 54 108 -18 20
-61 22 -84 4z"/>
<path d="M3534 1794 c-62 -31 -73 -107 -21 -159 30 -30 54 -36 108 -26 26 5
62 60 62 94 -1 37 -4 45 -20 64 -39 44 -78 52 -129 27z"/>
<path d="M2382 1763 c-7 -3 -19 -17 -27 -32 -12 -25 -12 -31 2 -52 32 -47 62
-51 98 -15 51 51 -4 127 -73 99z"/>
<path d="M2670 1750 c-27 -27 -25 -71 4 -92 46 -33 114 8 101 61 -12 51 -68
68 -105 31z"/>
<path d="M2519 1739 c-10 -10 -19 -32 -19 -47 0 -75 107 -85 125 -11 13 55
-65 99 -106 58z"/>
<path d="M840 1722 c-53 -17 -100 -79 -100 -133 0 -99 100 -169 190 -132 140
57 107 260 -45 268 -16 1 -37 0 -45 -3z"/>
<path d="M4188 1723 c-10 -2 -18 -9 -18 -14 0 -5 -6 -9 -14 -9 -24 0 -59 -88
-51 -129 19 -100 131 -151 217 -98 32 20 60 75 60 117 -2 98 -91 160 -194 133z"/>
<path d="M1994 1699 c-55 -20 -70 -93 -29 -134 31 -32 75 -32 111 -2 56 48 27
128 -51 143 -5 1 -20 -2 -31 -7z"/>
<path d="M3058 1695 c-46 -26 -49 -103 -4 -135 35 -24 71 -23 102 3 38 33 38
91 -1 124 -30 26 -58 28 -97 8z"/>
<path d="M3384 1635 c-42 -18 -64 -47 -66 -88 -3 -95 105 -143 172 -75 29 28
32 36 27 76 -8 72 -71 113 -133 87z"/>
<path d="M1265 1621 c-61 -37 -81 -101 -51 -160 51 -97 195 -81 225 25 27 97
-89 187 -174 135z"/>
<path d="M1635 1605 c-25 -26 -32 -42 -31 -67 9 -131 182 -139 202 -9 6 37
-19 85 -53 100 -46 21 -83 13 -118 -24z"/>
<path d="M3739 1623 c-103 -63 -56 -223 66 -223 94 0 150 112 95 189 -36 52
-108 67 -161 34z"/>
<path d="M2148 1613 c-65 -41 -43 -137 34 -150 71 -11 122 79 75 132 -28 32
-74 39 -109 18z"/>
<path d="M2877 1605 c-58 -58 -11 -155 68 -141 34 6 43 13 59 44 28 54 -2 108
-65 118 -28 5 -39 1 -62 -21z"/>
<path d="M2320 1552 c-18 -19 -30 -41 -30 -57 0 -16 12 -38 30 -57 26 -25 36
-29 63 -24 38 7 77 48 77 81 0 33 -39 74 -77 81 -27 5 -37 1 -63 -24z"/>
<path d="M2713 1570 c-39 -16 -56 -77 -33 -119 10 -20 57 -42 80 -38 57 11 88
69 63 119 -22 44 -61 58 -110 38z"/>
<path d="M4497 1565 c-82 -28 -122 -101 -104 -188 14 -67 84 -120 158 -119
101 2 175 99 148 196 -25 91 -115 141 -202 111z"/>
<path d="M504 1550 c-98 -49 -114 -184 -30 -258 108 -94 281 0 259 140 -9 62
-40 102 -92 124 -46 19 -89 18 -137 -6z"/>
<path d="M2505 1535 c-42 -41 -30 -102 25 -130 43 -22 93 0 110 49 27 83 -73
144 -135 81z"/>
<path d="M1838 1488 c-40 -28 -53 -79 -33 -122 22 -46 35 -56 83 -60 57 -6
105 34 108 90 2 47 -8 68 -42 91 -36 23 -85 24 -116 1z"/>
<path d="M3180 1497 c-14 -7 -32 -28 -41 -47 -45 -95 57 -184 146 -126 106 69
8 230 -105 173z"/>
<path d="M4045 1454 c-5 -1 -22 -5 -37 -8 -84 -19 -125 -133 -75 -207 65 -96
216 -78 248 30 19 63 1 117 -53 159 -18 15 -68 30 -83 26z"/>
<path d="M1035 1443 c-37 -10 -68 -37 -85 -77 -45 -99 30 -205 137 -193 57 6
91 30 113 81 49 109 -47 219 -165 189z"/>
<path d="M1480 1432 c-36 -16 -58 -39 -71 -75 -33 -93 60 -187 154 -154 36 12
78 68 79 106 1 40 -18 82 -48 104 -26 20 -89 30 -114 19z"/>
<path d="M3523 1406 c-33 -30 -37 -38 -37 -85 0 -70 37 -109 109 -117 47 -6
52 -4 88 29 20 20 37 42 38 49 0 7 2 23 3 35 7 61 -56 123 -127 123 -28 0 -46
-8 -74 -34z"/>
<path d="M2063 1400 c-69 -28 -74 -144 -9 -179 91 -49 187 39 145 132 -20 43
-87 67 -136 47z"/>
<path d="M2955 1388 c-81 -72 -15 -205 89 -177 61 17 87 70 66 134 -21 63
-105 86 -155 43z"/>
<path d="M2290 1343 c-43 -17 -68 -75 -54 -125 24 -84 139 -96 181 -20 22 40
21 73 -3 110 -23 35 -81 51 -124 35z"/>
<path d="M2743 1338 c-23 -11 -53 -64 -53 -93 0 -28 27 -70 55 -85 51 -27 114
-8 138 43 44 89 -50 179 -140 135z"/>
<path d="M2520 1324 c-8 -2 -26 -20 -39 -39 -39 -58 -20 -124 45 -151 41 -17
92 -3 118 32 27 37 24 101 -7 131 -23 24 -83 37 -117 27z"/>
<path d="M1702 1264 c-81 -34 -93 -154 -20 -206 89 -63 210 18 186 124 -9 42
-49 87 -78 89 -8 1 -25 3 -36 4 -12 1 -35 -4 -52 -11z"/>
<path d="M3313 1263 c-84 -42 -78 -177 10 -214 84 -36 170 21 169 111 -1 92
-94 145 -179 103z"/>
<path d="M786 1242 c-102 -13 -169 -138 -123 -229 65 -124 238 -114 290 17 44
110 -48 227 -167 212z"/>
<path d="M4254 1233 c-43 -21 -65 -44 -80 -80 -49 -115 36 -232 158 -221 194
19 187 300 -7 313 -24 2 -56 -3 -71 -12z"/>
<path d="M3805 1214 c-5 -1 -22 -5 -38 -8 -37 -9 -85 -61 -93 -103 -26 -139
151 -229 241 -122 49 59 42 159 -15 199 -31 22 -78 39 -95 34z"/>
<path d="M1255 1196 c-109 -48 -103 -219 9 -256 78 -26 155 11 181 87 39 114
-78 219 -190 169z"/>
<path d="M1965 1150 c-82 -34 -101 -143 -35 -202 83 -76 215 -3 197 108 -12
74 -96 122 -162 94z"/>
<path d="M3059 1146 c-51 -29 -75 -91 -57 -147 28 -85 158 -106 210 -35 37 50
28 127 -19 168 -27 25 -101 32 -134 14z"/>
<path d="M2244 1079 c-18 -5 -43 -24 -58 -43 -46 -60 -21 -152 47 -181 56 -23
113 -7 145 40 66 95 -23 217 -134 184z"/>
<path d="M2813 1083 c-13 -2 -36 -17 -52 -33 -78 -78 -26 -204 85 -204 64 0
115 48 119 111 5 80 -69 141 -152 126z"/>
<path d="M2490 1035 c-63 -43 -64 -132 -3 -185 33 -29 41 -32 87 -27 41 4 55
10 77 37 35 41 40 80 18 130 -31 68 -116 90 -179 45z"/>
<path d="M1555 1012 c-63 -14 -111 -88 -100 -156 26 -167 275 -150 275 19 0
92 -83 157 -175 137z"/>
<path d="M3473 1004 c-101 -50 -107 -185 -10 -244 62 -38 153 -15 189 47 71
121 -54 258 -179 197z"/>
<path d="M3986 955 c-95 -33 -135 -130 -90 -220 56 -113 213 -118 276 -9 72
126 -49 276 -186 229z"/>
<path d="M991 923 c-111 -94 -60 -260 85 -279 63 -8 132 35 159 99 20 49 19
78 -7 132 -43 89 -162 113 -237 48z"/>
<path d="M1837 856 c-128 -64 -84 -262 57 -260 85 2 139 54 140 135 1 56 -18
93 -60 119 -46 29 -88 31 -137 6z"/>
<path d="M3185 869 c-40 -11 -81 -55 -92 -99 -30 -114 87 -211 192 -160 155
75 66 303 -100 259z"/>
<path d="M2170 774 c-75 -31 -108 -137 -62 -201 40 -57 90 -75 159 -59 34 8
92 66 94 94 1 9 3 27 4 40 4 34 -31 95 -66 116 -41 24 -86 28 -129 10z"/>
<path d="M2840 773 c-98 -50 -106 -187 -14 -243 98 -61 226 19 211 132 -13 98
-112 154 -197 111z"/>
<path d="M2525 753 c-83 -22 -124 -117 -85 -198 64 -133 264 -81 262 69 -1 83
-94 151 -177 129z"/>
<path d="M3668 730 c-89 -26 -142 -127 -109 -212 11 -30 59 -78 91 -90 98 -38
208 33 215 139 7 105 -97 191 -197 163z"/>
<path d="M1342 713 c-54 -26 -77 -68 -77 -140 0 -74 20 -107 84 -140 32 -16
54 -21 85 -17 148 20 191 207 66 291 -40 28 -109 30 -158 6z"/>
<path d="M1735 556 c-50 -19 -76 -39 -96 -78 -54 -105 18 -227 135 -230 93 -1
160 63 160 156 1 40 -5 61 -24 89 -38 55 -118 84 -175 63z"/>
<path d="M3277 546 c-63 -32 -90 -78 -85 -147 7 -92 67 -150 159 -151 53 -1
115 41 138 92 15 34 17 50 12 112 -2 29 -69 96 -104 104 -56 13 -78 11 -120
-10z"/>
<path d="M2093 443 c-148 -84 -89 -307 79 -298 55 3 86 20 124 70 47 62 30
165 -37 214 -42 31 -124 38 -166 14z"/>
<path d="M2884 441 c-87 -53 -108 -166 -44 -239 101 -116 289 -41 277 110 -10
117 -137 187 -233 129z"/>
<path d="M2517 417 c-130 -41 -152 -207 -37 -284 40 -28 107 -30 153 -7 39 21
50 32 72 73 62 121 -57 258 -188 218z"/>
</g>
</svg>
